<svg width="462" height="100" viewBox="0 0 462 100" fill="none" xmlns="http://www.w3.org/2000/svg">
<path fill-rule="evenodd" clip-rule="evenodd" d="M276.308 65.0613H294.827C303.084 65.0613 309.84 58.7892 309.84 51.1224C309.84 43.4557 303.084 37.1836 294.827 37.1836H276.308V65.0613ZM276.308 25.0001H294.827C310.3 25.0001 322.962 36.7558 322.962 51.1224C322.962 65.4891 310.3 77.2448 294.827 77.2448H276.308H269.746H263.186V39.4749V25.0001H276.308ZM384.11 37.1838V25.0003H327.205V37.1838H342.97H384.11ZM384.109 57.2159V45.0338H327.203V57.2159H342.969H384.109ZM384.109 65.0618V77.2453H342.969H327.203V65.0618H384.109ZM441.041 25.0003L424.385 41.4553L407.728 25.0003H387.668L414.177 51.5417L388.146 77.2566H408.911L424.385 61.7626L439.86 77.2566H460.622L434.592 51.5417L461.098 25.0003H441.041Z" fill="#007AFF"/>
<path fill-rule="evenodd" clip-rule="evenodd" d="M151.045 63.9606H133.416V36.8494H151.045C158.906 36.8494 165.337 42.949 165.337 50.405C165.337 57.8609 158.906 63.9606 151.045 63.9606ZM151.045 25.0008H133.416H120.924V39.0776V75.8091H127.169H133.416H151.045C165.776 75.8091 177.829 64.3767 177.829 50.405C177.829 36.4333 165.776 25.0008 151.045 25.0008ZM207.053 75.8051V71.2356C207.053 71.2356 205.708 75.8051 195.246 75.8051C192.46 75.8051 190.174 75.4536 188.389 74.7506C186.606 74.0476 185.201 73.0535 184.172 71.7628C183.146 70.4749 182.424 68.9058 182.011 67.0527C181.594 65.2024 181.387 63.151 181.387 60.9014V38.5457H191.8V59.0749C191.8 62.074 192.289 64.3109 193.267 65.7873C194.244 67.265 195.979 68.0017 198.472 68.0017C201.307 68.0017 203.36 67.1933 204.633 65.5778C205.904 63.9594 206.539 61.3007 206.539 57.5986V38.5457H216.953V75.8051H207.053ZM240.225 45.8767C242.852 45.8767 244.812 46.5151 246.102 47.7945C247.391 49.074 248.288 50.9453 248.793 53.411H231.276C231.326 52.7261 231.49 51.9494 231.769 51.0809C232.045 50.2151 232.528 49.3932 233.21 48.6165C233.891 47.8397 234.803 47.1904 235.94 46.6644C237.078 46.1397 238.505 45.8767 240.225 45.8767ZM240.906 68.5468C237.873 68.5468 235.547 67.84 233.931 66.4249C232.311 65.0084 231.427 62.7249 231.276 59.5755H259.563C259.765 56.8357 259.511 54.211 258.805 51.6987C258.095 49.1877 256.945 46.9493 255.354 44.9849C253.762 43.0232 251.725 41.4588 249.248 40.2931C246.771 39.13 243.864 38.5478 240.527 38.5478C237.543 38.5478 234.827 39.0273 232.375 39.9862C229.922 40.9451 227.812 42.2575 226.042 43.9246C224.272 45.5918 222.907 47.5658 221.947 49.8493C220.987 52.1329 220.508 54.5987 220.508 57.2453C220.508 59.9851 220.975 62.4975 221.911 64.7797C222.845 67.0633 224.172 69.0277 225.892 70.6702C227.611 72.314 229.708 73.5812 232.185 74.4729C234.662 75.3634 237.443 75.8072 240.527 75.8072C244.977 75.8072 248.769 74.8949 251.902 73.0674C255.037 71.2428 257.364 68.2044 258.881 63.9591H249.401C249.046 65.055 248.086 66.0934 246.518 67.0742C244.951 68.0578 243.081 68.5468 240.906 68.5468Z" fill="#007AFF"/>
<path fill-rule="evenodd" clip-rule="evenodd" d="M49.1349 0H0V100H49.1349C77.1084 100 100 77.5 100 50C100 22.5 77.1084 0 49.1349 0Z" fill="url(#paint0_linear)"/>
<path fill-rule="evenodd" clip-rule="evenodd" d="M49.03 0H0V100C0 100 73.1315 22.4771 81.7497 11.7087C72.9008 4.37959 61.4579 0 49.03 0Z" fill="url(#paint1_linear)"/>
<path fill-rule="evenodd" clip-rule="evenodd" d="M81.7501 11.7087L41.5494 26.5206L50.8366 34.0298L29.9473 65.1571L25.9865 57.6273L0.0314941 99.9541L23.2991 76.3085L28.0511 86.1124L64.855 45.367L74.6359 53.2741L81.7501 11.7087Z" fill="white"/>
<defs>
<linearGradient id="paint0_linear" x1="81.25" y1="12.5" x2="81.7728" y2="99.9969" gradientUnits="userSpaceOnUse">
<stop stop-color="#007AFF"/>
<stop offset="1" stop-color="#0055BC"/>
</linearGradient>
<linearGradient id="paint1_linear" x1="75" y1="8.33334" x2="-0.217804" y2="61.0451" gradientUnits="userSpaceOnUse">
<stop stop-color="#6FB5FF"/>
<stop offset="1" stop-color="#007CFF"/>
</linearGradient>
</defs>
</svg>
